PathFileType	4	(X/Y/Z)	OpenSim_Sub04_CSStiffKnee_Gyro.trc
DataRate	CameraRate	NumFrames	NumMarkers	Units	OrigDataRate	OrigDataStartFrame	OrigNumFrames
100	100	20	8	m	100	1854	7413
Frame#	Time	torso_imu_offset_imu	pelvis_imu_offset_imu	tibia_r_imu_offset_imu	femur_r_imu_offset_imu	tibia_l_imu_offset_imu	femur_l_imu_offset_imu	toes_r_imu_offset_imu	toes_l_imu_offset_imu
				X1	Y1	Z1	X2	Y2	Z2	X3	Y3	Z3	X4	Y4	Z4	X5	Y5	Z5	X6	Y6	Z6	X7	Y7	Z7	X8		Y8	Z8	

1854	18.53000000	-0.26882680	0.01410929	0.22122036	0.01077237	-0.04870805	-0.23058113	-0.40498239	-0.13554996	-0.30561129	-0.51031729	-0.36434716	-0.95431460	-0.01579367	0.54951758	-2.51343756	-0.15556410	0.65187445	-0.91472774	-0.01391358	0.11357526	-0.19734840	-0.97814533	1.32395823	-0.33020634
1855	18.54000000	-0.25093404	0.01227473	0.18701667	-0.03692849	-0.06150342	-0.24496668	-0.47227419	-0.14109373	-0.35495519	-0.45150265	-0.33762101	-0.88476471	0.11752941	0.49257556	-2.39923037	-0.41324530	0.57045706	-0.91753409	-0.03503565	0.13902595	-0.21436052	-0.85868022	1.36196853	-0.13150336
1856	18.55000000	-0.25567964	0.00984504	0.15582030	-0.09175544	-0.07474369	-0.22188382	-0.50980270	-0.13779876	-0.39988279	-0.40143694	-0.28997640	-0.77882337	0.21377516	0.43729488	-2.25924898	-0.69507005	0.40643794	-0.91401361	-0.03548684	0.13490826	-0.22412699	-0.48233808	1.55916014	-0.06579452
1857	18.56000000	-0.27329225	0.01006820	0.13307287	-0.15795526	-0.08583369	-0.19378397	-0.53959634	-0.13051940	-0.44649686	-0.35791337	-0.21967495	-0.71336209	0.20667788	0.40178338	-2.10762046	-0.86953556	0.30479331	-0.87829266	-0.06805877	0.12085861	-0.22491354	0.03577219	1.71192142	-0.09429728
1858	18.57000000	-0.28523493	0.00949848	0.10778560	-0.23257683	-0.10836969	-0.16872419	-0.55926736	-0.11410233	-0.51869242	-0.36905271	-0.10534342	-0.69275261	0.23301421	0.34538274	-1.98515468	-0.95624006	0.27008656	-0.83865135	-0.09440576	0.10883516	-0.22693460	0.42589785	1.66706843	-0.11922005
1859	18.58000000	-0.28343428	0.01380460	0.08571672	-0.29806075	-0.14262966	-0.14446758	-0.52817124	-0.10119955	-0.60996113	-0.44111818	0.02141635	-0.63280559	0.29908923	0.26417493	-1.91309026	-1.01106852	0.24490109	-0.79091733	-0.07935939	0.08113411	-0.23622296	0.43911655	1.60301220	-0.15113699
1860	18.59000000	-0.26090576	0.01498596	0.05522675	-0.34304754	-0.17726047	-0.13301078	-0.46445976	-0.09659215	-0.67926757	-0.54076359	0.09611682	-0.51498345	0.36529629	0.18971689	-1.83980676	-1.02223463	0.23743378	-0.71612507	-0.07338289	0.03271008	-0.24238882	0.15989296	1.57549778	-0.21278279
1861	18.60000000	-0.23349486	0.01630395	0.02200615	-0.37253189	-0.22310084	-0.13640113	-0.42271632	-0.09707639	-0.73020821	-0.62730922	0.11946583	-0.52638367	0.37121779	0.15958556	-1.70845948	-0.95158540	0.20211020	-0.60102840	-0.05675794	-0.00941747	-0.25163562	-0.13351690	1.45847189	-0.29692143
1862	18.61000000	-0.20216844	0.00764264	-0.01112887	-0.39189469	-0.25933726	-0.15127352	-0.37595852	-0.10676059	-0.79038226	-0.68966263	0.15385258	-0.54731643	0.23812720	0.15977805	-1.53776105	-0.71617777	0.20008576	-0.49895028	-0.04486745	-0.05738332	-0.26198378	-0.29415644	1.23469964	-0.39970152
1863	18.62000000	-0.18620093	-0.01827928	-0.04440054	-0.39718323	-0.26380669	-0.17399432	-0.33152541	-0.10356998	-0.87626586	-0.68728710	0.16163731	-0.47653073	0.02981312	0.14202115	-1.34602717	-0.46430282	0.17573700	-0.46886021	-0.03595114	-0.10659082	-0.27814882	-0.28116150	0.97280074	-0.49631399
1864	18.63000000	-0.16282455	-0.04828031	-0.06883783	-0.39092917	-0.26039005	-0.20099806	-0.26618544	-0.08870540	-0.96563237	-0.61705575	0.13666129	-0.41203673	-0.25669574	0.12638773	-1.13134181	-0.30399848	0.12906474	-0.47924764	-0.01711115	-0.15655619	-0.29710596	-0.31087892	0.73260746	-0.55834239
1865	18.64000000	-0.12549356	-0.08397332	-0.09710475	-0.37762998	-0.26443224	-0.22434126	-0.24434661	-0.07840833	-1.03639995	-0.53439905	0.11310450	-0.34376993	-0.61682103	0.13764571	-0.90398604	-0.23813235	0.13383202	-0.50043637	0.00198172	-0.22284269	-0.33189550	0.24443533	0.28667637	-0.81325549
1866	18.65000000	-0.09044928	-0.10964144	-0.12423814	-0.36012247	-0.26562936	-0.23433513	-0.26604278	-0.06578259	-1.11785429	-0.41319915	0.09515480	-0.32417080	-0.83589161	0.10920278	-0.67186343	-0.24001844	0.16060481	-0.52237745	-0.00257283	-0.29872586	-0.35487266	0.52029557	-0.18981382	-1.16146142
1867	18.66000000	-0.05736679	-0.11960543	-0.13853395	-0.31771223	-0.28298140	-0.22884004	-0.28649294	-0.03650899	-1.22072364	-0.22553285	0.09976309	-0.31187540	-0.91282267	0.05590442	-0.40312642	-0.28335486	0.18295931	-0.53603522	-0.00395804	-0.36304424	-0.36671360	0.36415291	-0.54953455	-1.49292885
1868	18.67000000	-0.02033786	-0.13006180	-0.14240374	-0.27059613	-0.31341416	-0.19996510	-0.32854246	0.00667542	-1.30446443	-0.01559220	0.11500493	-0.28611431	-1.08315208	-0.00899296	-0.12718793	-0.37830894	0.19241306	-0.52654287	-0.00242763	-0.45705531	-0.36832765	-0.08974562	-1.00047228	-1.68057169
1869	18.68000000	0.01701688	-0.13470539	-0.13662270	-0.21651750	-0.34561012	-0.15710488	-0.40176985	0.05431025	-1.38997392	0.15340518	0.13172271	-0.26430195	-1.38864031	-0.06787772	0.11227573	-0.50917693	0.17996314	-0.48794917	-0.05599723	-0.58048579	-0.37508068	-0.57738835	-1.47527162	-1.70237310
1870	18.69000000	0.04270580	-0.14518799	-0.12649262	-0.17991222	-0.36573307	-0.10363705	-0.38989400	0.08549443	-1.47624590	0.20246123	0.17231732	-0.14557287	-1.74086205	-0.08980974	0.32250197	-0.66450830	0.11582954	-0.40435142	-0.02093937	-0.74247998	-0.44250945	-0.86675908	-1.87810299	-1.66937657
1871	18.70000000	0.07374301	-0.15571439	-0.11791586	-0.17586851	-0.38389055	-0.04667910	-0.34579626	0.02991195	-1.53757605	0.19654506	0.20662420	-0.19350615	-2.09895233	-0.11568604	0.55482383	-0.79637237	-0.01376057	-0.31563748	-0.02734257	-0.92906896	-0.49587928	-0.24900066	-2.31504939	-1.60822646
1872	18.71000000	0.10699326	-0.16210931	-0.10281165	-0.20086485	-0.40834673	0.00380953	-0.40465600	0.01181287	-1.63487921	0.14269130	0.22182632	-0.25880956	-2.45462612	-0.15684552	0.84726053	-0.86609575	-0.18602161	-0.23600099	-0.01467226	-1.09931014	-0.59148629	-3.38843157	-2.52568424	-1.41752662
1873	18.72000000	0.15942139	-0.16013774	-0.08036280	-0.25491427	-0.42700970	0.04419804	-0.33367233	-0.04164743	-1.74474037	0.03762993	0.22694719	-0.13354920	-2.81152298	-0.25218345	1.22975749	-0.90686682	-0.35150700	-0.16333461	0.03059984	-1.26820243	-0.67205181	-2.34093950	-1.01962207	-0.04233778
